<svg id="Llumar_Logo" data-name="Llumar Logo" xmlns="http://www.w3.org/2000/svg" width="98" height="54.437" viewBox="0 0 98 54.437">
  <path id="Path_1" data-name="Path 1" d="M30.078,66.622,30,96.04l7.436.02-.01,3.822L25.606,99.85l.089-33.24Z" transform="translate(-25.606 -46.005)" fill="#cd0f20"/>
  <path id="Path_2" data-name="Path 2" d="M49.6,66.674l-.079,29.418,7.435.02-.01,3.822L45.067,99.9l.089-33.24Z" transform="translate(-30.473 -46.018)" fill="#cd0f20"/>
  <path id="Path_3" data-name="Path 3" d="M67.812,81.35l-.037,13.96c-.005,1.995-.289,4.874,2.54,4.883s2.5-2.653,2.509-4.646l.038-14.182,4.163.011-.04,15.07c-.012,4.542-1.408,7.585-6.458,7.571-6.047-.016-6.871-3.451-6.858-8.494l.037-14.182Z" transform="translate(-35.125 -49.689)" fill="#cd0f20"/>
  <path id="Path_4" data-name="Path 4" d="M90.717,84.078h.057a4.65,4.65,0,0,1,4.391-3.091A3.9,3.9,0,0,1,99.153,84.1h.111a4.759,4.759,0,0,1,4.612-3.09c3.885.01,4.877,2.451,4.869,5.387l-.047,17.23-4.161-.011.041-15.568c0-1.662-.212-3.324-2.266-3.33-2.94-.008-2.616,2.763-2.621,4.758L99.654,103.6l-4.161-.01.04-15.124c.005-1.774.01-3.768-2.376-3.774-2.608-.007-2.393,2.874-2.51,4.758l-.038,14.127-4.107-.01L86.562,81.3l4.162.01Z" transform="translate(-40.836 -49.601)" fill="#cd0f20"/>
  <path id="Path_5" data-name="Path 5" d="M127.4,100.35h-.056l-.009,3.435a5.062,5.062,0,0,0,2.451-2.931h.055l-.008,2.825,4.16.011.06-22.271-4.16-.011-.007,2.493h-.055a4.782,4.782,0,0,0-2.436-2.555l-.009,3.436h.056c2.775.007,2.592,5.99,2.587,7.762s.146,7.812-2.629,7.8m-.056,0c-3.051-.119-2.7-5.99-2.7-7.819.005-1.773-.312-7.7,2.739-7.748l.009-3.436a4.807,4.807,0,0,0-1.552-.281c-5.215-.014-5.4,7.465-5.411,11.177-.01,3.6.079,11.8,5.24,11.813a5,5,0,0,0,1.664-.271Z" transform="translate(-49.322 -49.62)" fill="#cd0f20"/>
  <path id="Path_6" data-name="Path 6" d="M147.858,84.231h.112a4.96,4.96,0,0,1,4.725-3.09l-.011,4.1-.719-.058c-3.054-.008-4.057,1.708-4.065,4.532l-.037,14.017-4.161-.011.06-22.271,4.1.011Z" transform="translate(-55.14 -49.639)" fill="#cd0f20"/>
  <path id="Path_7" data-name="Path 7" d="M152.491,109.147h0v.443a2.244,2.244,0,1,0,.012-4.487v.388a1.828,1.828,0,1,1-.01,3.656m0-1.661v-.333h.279c.221,0,.442-.055.443-.388s-.333-.331-.61-.332h-.11V106.1h.222a1.281,1.281,0,0,1,.665.113.745.745,0,0,1,.277.664c0,.445-.224.61-.667.608l.606,1.054h-.554Zm0,1.661a1.828,1.828,0,1,1,.01-3.656V105.1a2.244,2.244,0,1,0-.012,4.487Zm.008-3.047v.333h-.445v.72h.445v.333h-.445l0,1.051h-.5l.007-2.437Z" transform="translate(-56.771 -55.632)" fill="#cd0f20"/>
  <path id="Path_8" data-name="Path 8" d="M122.37,71.28c-1.533-7.7-11-13.436-19.108-13.458-7.99-.021-17.05,5.716-18.736,13.357Z" transform="translate(-40.341 -43.807)" fill="#cd0f20"/>
  <path id="Path_9" data-name="Path 9" d="M140.8,65.835a7.43,7.43,0,0,1,5.666-2.589,31.945,31.945,0,0,1,3.138,9.427l-12.653-.034a7.522,7.522,0,0,0-1.211-3.438s2.5.062,5.06-3.366" transform="translate(-53.15 -45.163)" fill="#cd0f20"/>
  <path id="Path_10" data-name="Path 10" d="M131.766,46.363a8.513,8.513,0,0,0-4.286,5.085c-.843,4.209-3.12,5.2-3.12,5.2H124.3a20.781,20.781,0,0,1,8.082,7.334s2.5.118,5.057-3.309a7.282,7.282,0,0,1,5.61-2.589,33.417,33.417,0,0,0-11.288-11.665Z" transform="translate(-50.289 -40.942)" fill="#cd0f20"/>
  <path id="Path_11" data-name="Path 11" d="M112.039,39.287a8.184,8.184,0,0,0-1.183,6.534c1.432,4.048-.07,6.149-.07,6.149h-.057a23.378,23.378,0,0,1,9.039,2.406l.056-.055s2.333-1.046,3.175-5.2a8.3,8.3,0,0,1,4.232-5.084h.112a34.622,34.622,0,0,0-15.3-4.75" transform="translate(-46.862 -39.172)" fill="#cd0f20"/>
  <path id="Path_12" data-name="Path 12" d="M93.814,54.727s.34-2.6-2.816-5.493A8.565,8.565,0,0,1,88.963,42.8a33.35,33.35,0,0,1,16.323-3.668,8.541,8.541,0,0,0-1.127,6.645c1.377,3.993-.126,6.149-.126,6.149a19.938,19.938,0,0,0-10.218,2.8" transform="translate(-41.441 -39.134)" fill="#cd0f20"/>
  <path id="Path_13" data-name="Path 13" d="M80.846,64.034s-1.16-2.33-5.375-3.006a8.562,8.562,0,0,1-5.261-4.115,34.532,34.532,0,0,1,12.906-11.93,8.417,8.417,0,0,0,2.035,6.376c3.156,2.889,2.817,5.492,2.817,5.492l-.056.055a18.549,18.549,0,0,0-7.066,7.128" transform="translate(-36.761 -40.597)" fill="#cd0f20"/>
  <path id="Path_14" data-name="Path 14" d="M68.255,62.369a8.369,8.369,0,0,0,5.26,4.114c4.216.675,5.375,3,5.375,3a9.761,9.761,0,0,0-1.062,2.823l-13.207-.035a26.116,26.116,0,0,1,3.69-9.907Z" transform="translate(-35.363 -44.945)" fill="#cd0f20"/>
</svg>
