<?xml version="1.0" encoding="UTF-8"?> <svg xmlns="http://www.w3.org/2000/svg" width="216" height="26" viewBox="0 0 216 26" fill="none"><g clip-path="url(#clip0_4155_4389)"><path d="M8.71965 1.05556L16.1526 16.9444H16.3744L24.3621 1.05556H32.0169V24.8333H25.6933V9.94445L18.8151 24.9444H13.7119L6.72274 9.94445V24.9444H0.621094V1.05556H8.71965Z" fill="white"></path><path d="M51.3221 25.5C44.222 25.5 37.8984 20.5 37.8984 13.0556C38.0094 5.5 44.222 0.5 51.3221 0.5C58.4222 0.5 64.7457 5.5 64.7457 12.9444C64.7457 20.5 58.4222 25.5 51.3221 25.5ZM51.3221 20.0556C55.2049 20.0556 58.3112 17.2778 58.3112 12.9444C58.3112 8.61111 55.2049 5.83333 51.3221 5.83333C47.3283 5.83333 44.222 8.61111 44.222 12.9444C44.3329 17.3889 47.4392 20.0556 51.3221 20.0556Z" fill="white"></path><path d="M76.5016 1.05554L89.2596 15.5V1.05554H95.5832V24.8333H89.8143L77.0563 10.5V24.9444H70.8438V1.05554H76.5016Z" fill="white"></path><path d="M114.998 25.5C107.898 25.5 101.574 20.5 101.574 12.9444C101.574 5.5 107.898 0.5 114.998 0.5C122.098 0.5 128.421 5.5 128.421 12.9444C128.311 20.5 122.098 25.5 114.998 25.5ZM114.998 20.0556C118.881 20.0556 121.987 17.2778 121.987 12.9444C121.987 8.61111 118.881 5.83333 114.998 5.83333C111.004 5.83333 107.898 8.61111 107.898 12.9444C107.898 17.3889 111.004 20.0556 114.998 20.0556Z" fill="white"></path><path d="M148.503 1.05554C154.272 1.05554 158.488 4.94443 158.488 10.5C158.488 16.1667 154.272 19.7222 148.503 19.7222H140.738V24.8333H134.414V1.05554H148.503ZM140.738 14.0555H148.171C150.389 14.0555 152.053 12.9444 152.053 10.6111C152.053 8.27776 150.5 6.94443 148.171 6.94443H140.738V14.0555Z" fill="white"></path><path d="M178.011 1.05554C183.78 1.05554 187.996 4.94443 187.996 10.5C187.996 16.1667 183.78 19.7222 178.011 19.7222H170.245V24.8333H163.922V1.05554H178.011ZM170.245 14.0555H177.678C179.897 14.0555 181.561 12.9444 181.561 10.6111C181.561 8.27776 180.008 6.94443 177.678 6.94443H170.245V14.0555Z" fill="white"></path><path d="M193.434 1.05554H215.621V6.83332H199.757V10.5H213.735V16.2778H199.757V24.9444H193.434V1.05554Z" fill="white"></path></g><defs><clipPath id="clip0_4155_4389"><rect width="216" height="25" fill="white" transform="translate(0 0.5)"></rect></clipPath></defs></svg> 