<svg width="200" height="40" viewBox="0 0 127 26" fill="none" xmlns="http://www.w3.org/2000/svg"><path d="M47.4429 3.39062H36.9189C34.6833 3.39062 32.875 5.22416 32.875 7.48739V11.1751C32.875 13.4383 34.6833 15.2718 36.9189 15.2718H46.469V18.9566H37.8899V17.7293C37.8899 17.2761 37.5323 16.9082 37.0846 16.9082H33.6861C33.2384 16.9082 32.8779 17.2761 32.8779 17.7293V18.9566C32.8779 21.2198 34.6862 23.0533 36.9218 23.0533H47.4458C49.6727 23.0533 51.4926 21.2198 51.4926 18.9566V15.2689C51.4897 13.0086 49.6756 11.1751 47.4458 11.1751H37.8928V7.48739H46.4719V8.71465C46.4719 9.16789 46.8295 9.53283 47.2801 9.53283H50.6786C51.1234 9.53283 51.4897 9.16789 51.4897 8.71465V7.48739C51.4897 5.22416 49.6727 3.39062 47.4429 3.39062Z" fill="white"></path><path d="M74.8945 3.39062H57.9049C57.4542 3.39062 57.0938 3.75851 57.0938 4.2088V6.66627C57.0938 7.1195 57.4513 7.48445 57.9049 7.48445H63.8908V22.2322C63.8908 22.6854 64.2512 23.0533 64.7019 23.0533H68.0975C68.5481 23.0533 68.9056 22.6854 68.9056 22.2322V7.48445H74.8945C75.3422 7.48445 75.7056 7.1195 75.7056 6.66627V4.21174C75.7056 3.75557 75.3422 3.39062 74.8945 3.39062Z" fill="white"></path><path d="M99.2809 3.39062H82.1285C81.6808 3.39062 81.3203 3.75851 81.3203 4.2088V22.2322C81.3203 22.6854 81.6808 23.0533 82.1285 23.0533H99.2809C99.7373 23.0533 100.092 22.6854 100.092 22.2322V19.7777C100.092 19.3215 99.7373 18.9566 99.2809 18.9566H86.341V15.2689H99.2809C99.7373 15.2689 100.092 14.9039 100.092 14.4507V11.9962C100.092 11.54 99.7373 11.1721 99.2809 11.1721H86.341V7.48445H99.2809C99.7373 7.48445 100.092 7.1195 100.092 6.66627V4.21174C100.092 3.75557 99.7373 3.39062 99.2809 3.39062Z" fill="white"></path><path d="M126.237 21.6348L117.021 12.7202C116.925 12.6466 116.864 12.5318 116.864 12.4023C116.864 12.2934 116.907 12.1993 116.977 12.1257L125.013 4.80625H125.007C125.164 4.65615 125.268 4.44425 125.268 4.2088C125.268 3.75851 124.905 3.39062 124.457 3.39062H120.021C119.806 3.39062 119.611 3.47597 119.466 3.6143L112.079 10.3569H110.712V4.2088C110.712 3.75557 110.355 3.39062 109.907 3.39062H106.508C106.061 3.39062 105.703 3.75851 105.703 4.2088V22.2322C105.703 22.6854 106.061 23.0533 106.508 23.0533H109.907C110.355 23.0533 110.712 22.6854 110.712 22.2322V14.4478H111.968L120.664 22.8091C120.664 22.8091 120.672 22.8149 120.675 22.8149L120.687 22.8297C120.838 22.968 121.027 23.0533 121.242 23.0533H125.681C126.126 23.0533 126.49 22.6854 126.49 22.2322C126.49 21.9968 126.385 21.7849 126.228 21.6348H126.234H126.237Z" fill="white"></path><path d="M21.6878 4.0787L9.40205 0.182062C7.11118 -0.55665 4.54123 1.02084 3.71559 3.67844L0.261851 14.7268C-0.56379 17.4138 0.628156 20.2038 2.92193 20.9102L15.2077 24.8421C17.5305 25.5867 20.0976 24.0063 20.9261 21.3104L24.3799 10.2945C25.2026 7.60156 24.0107 4.8233 21.6878 4.07575V4.0787ZM22.7896 9.37329L19.0917 21.1633C18.6324 22.676 17.0131 23.4824 15.5159 23.0174L3.74757 19.2444C2.21839 18.7794 1.36367 17.1401 1.85208 15.6538L5.52095 3.86385C5.97738 2.34817 7.59668 1.51233 9.12877 2.00677L20.8942 5.75625C22.3914 6.25069 23.249 7.85761 22.7896 9.37329Z" fill="white"></path><path d="M12.8004 14.8555C13.1377 13.7518 11.0707 12.763 10.37 12.195C9.11413 11.2296 8.77689 9.74043 9.14901 8.41016C8.94551 9.08118 8.64898 10.2496 8.61118 10.538C8.45419 11.7211 8.84957 12.9543 9.94267 13.7901C10.4398 14.1933 11.6201 14.8055 12.1492 15.5265C12.4574 15.3941 12.7074 15.1733 12.8004 14.8555Z" fill="white"></path><path d="M9.20312 8.23247C9.21479 8.19112 9.22938 8.14977 9.24105 8.10547C9.22646 8.14386 9.21479 8.18521 9.20312 8.23247Z" fill="white"></path><path d="M12.5224 18.451C11.7143 18.5982 10.6793 18.3686 9.94959 18.0861C8.97277 17.7153 6.679 16.0171 6.51329 15.4785L6.08594 17.0737C6.25165 17.6122 8.54832 19.3104 9.51933 19.6812C10.249 19.9608 11.284 20.1904 12.0951 20.0462C12.9353 19.8784 13.8568 19.6253 14.4732 19.0308C14.8337 18.66 15.4238 17.7535 15.5663 17.2179C15.6826 16.8412 15.7523 16.485 15.7785 16.1525C15.5343 16.6351 15.1593 17.1737 14.9034 17.4357C14.2871 18.0302 13.3626 18.2862 12.5224 18.451Z" fill="white"></path><path d="M9.29306 7.98863C9.28131 8.01242 9.26956 8.03918 9.25781 8.06891C9.2725 8.03026 9.29012 8.00052 9.30187 7.96484C9.29893 7.97376 9.29599 7.97971 9.29306 7.98863Z" fill="white"></path><path d="M13.3823 10.1121C14.1382 10.3358 14.8097 10.8185 15.397 11.6131L17.3273 9.60002C17.7343 8.0961 17.4204 9.3734 17.7576 8.00781L15.8272 10.0179C15.24 9.2233 14.5713 8.74358 13.8125 8.51697C12.5973 8.11671 12.106 9.30277 12.7136 10.0533C12.8997 10.015 13.1265 10.0268 13.3823 10.1151V10.1121Z" fill="white"></path><path d="M9.24219 8.10909C9.24219 8.10909 9.25134 8.0786 9.25743 8.06641C9.25134 8.08165 9.24829 8.0969 9.24219 8.10909Z" fill="white"></path><path d="M9.14844 8.41258C9.16886 8.34761 9.18636 8.28854 9.20679 8.23242C9.18636 8.28854 9.16594 8.35056 9.14844 8.41258Z" fill="white"></path></svg>