<svg width="64" height="64" viewBox="0 0 64 64" fill="none" xmlns="http://www.w3.org/2000/svg">
<g stroke="#168491" stroke-width="1.5" stroke-linecap="round" stroke-linejoin="round" fill="none">
<path d="M8 42h48l-3-13c-3-9-8-13-18-13H26c-10 0-15 4-18 13z"/>
<path d="M18 50a5 5 0 1 0 10 0a5 5 0 1 0 -10 0"/>
<path d="M36 50a5 5 0 1 0 10 0a5 5 0 1 0 -10 0"/>
<rect x="16" y="16" width="32" height="22" rx="2" stroke="#168491" stroke-width="1.5" fill="none"/>
<line x1="20" y1="20" x2="20" y2="36" stroke="#168491" stroke-width="1.5"/>
<line x1="28" y1="20" x2="28" y2="36" stroke="#168491" stroke-width="1.5"/>
<line x1="36" y1="20" x2="36" y2="36" stroke="#168491" stroke-width="1.5"/>
<line x1="44" y1="20" x2="44" y2="36" stroke="#168491" stroke-width="1.5"/>
<line x1="52" y1="20" x2="52" y2="36" stroke="#168491" stroke-width="1.5"/>
</g>
</svg>
