<svg width="32" height="32" viewBox="0 0 32 32" xmlns="http://www.w3.org/2000/svg">
  <!-- Круглая обводка -->
  <circle cx="16" cy="16" r="15" fill="none" stroke="currentColor" stroke-width="1" opacity="0.2"/>
  
  <!-- Три лепестка пропеллера - изогнутые формы -->
  <path d="M 16 2 C 22 4 26 8 28 14 C 30 20 28 26 22 28 C 16 30 10 28 8 22 C 6 16 8 10 14 8 C 12 6 10 4 16 2 Z" 
        fill="currentColor" 
        opacity="0.95"/>
  
  <path d="M 16 2 C 22 4 26 8 28 14 C 30 20 28 26 22 28 C 16 30 10 28 8 22 C 6 16 8 10 14 8 C 12 6 10 4 16 2 Z" 
        fill="currentColor" 
        opacity="0.85"
        transform="rotate(120 16 16)"/>
  
  <path d="M 16 2 C 22 4 26 8 28 14 C 30 20 28 26 22 28 C 16 30 10 28 8 22 C 6 16 8 10 14 8 C 12 6 10 4 16 2 Z" 
        fill="currentColor" 
        opacity="0.85"
        transform="rotate(240 16 16)"/>
</svg>
