<svg width="64" height="64" viewBox="0 0 64 64" fill="none" xmlns="http://www.w3.org/2000/svg">
<g stroke="#168491" stroke-width="1.5" stroke-linecap="round" stroke-linejoin="round" fill="none">
<path d="M8 40h48l-3-11c-3-8-8-12-18-12H26c-10 0-15 4-18 12z"/>
<path d="M18 48a5 5 0 1 0 10 0a5 5 0 1 0 -10 0"/>
<path d="M36 48a5 5 0 1 0 10 0a5 5 0 1 0 -10 0"/>
<rect x="16" y="18" width="32" height="18" rx="2" stroke="#168491" stroke-width="1.5" fill="none"/>
<line x1="22" y1="22" x2="22" y2="34" stroke="#168491" stroke-width="1.5"/>
<line x1="30" y1="22" x2="30" y2="34" stroke="#168491" stroke-width="1.5"/>
<line x1="38" y1="22" x2="38" y2="34" stroke="#168491" stroke-width="1.5"/>
<line x1="46" y1="22" x2="46" y2="34" stroke="#168491" stroke-width="1.5"/>
</g>
</svg>
